# xmcd CD database file generated by MAGIX_Freedb v0.9beta0
# 
# Track frame offsets:
#      150
#      21625
#      37667
#      50417
#      69257
#      90537
#      107662
#      122655
#      137727
#      148010
#      162765
#      179217
#      196987
#      212134
#      224637
#      239635
# 
# Disc length: 3358 seconds
# 
# Revision: 0 
# Processed by: cddbd v1.5.1PL0 Copyright (c) Steve Scherf et al.
# Submitted via: MAGIX_Freedb v0.9beta0
# 
DISCID=f30d1c10
DTITLE=Lee Towers - 24 Karat gold 1
DYEAR=1900
DGENRE=
TTITLE0=An American trilogy
TTITLE1=You'll never walk alone
TTITLE2=I can see clearly now
TTITLE3=Frankie
TTITLE4=Run to me
TTITLE5=Help me make it through
TTITLE6=I believe in music
TTITLE7=In the ghetto
TTITLE8=Say hello
TTITLE9=The story of Adam and Eve
TTITLE10=Buried treasure
TTITLE11=Sweet music man
TTITLE12=Midnight crazy
TTITLE13=Turn around look at me
TTITLE14=Million dollars
TTITLE15=Baretta's theme
EXTD=
EXTT0=
EXTT1=
EXTT2=
EXTT3=
EXTT4=
EXTT5=
EXTT6=
EXTT7=
EXTT8=
EXTT9=
EXTT10=
EXTT11=
EXTT12=
EXTT13=
EXTT14=
EXTT15=
PLAYORDER=
